<svg xmlns="http://www.w3.org/2000/svg" viewBox="0 0 8197 4338.56"><defs><style>.cls-1{isolation:isolate;}.cls-2{fill:#5c85bd;opacity:0.11;}.cls-2,.cls-3{stroke:#800d8c;}.cls-10,.cls-11,.cls-14,.cls-15,.cls-16,.cls-19,.cls-2,.cls-20,.cls-21,.cls-25,.cls-3,.cls-30,.cls-34,.cls-36,.cls-38,.cls-40,.cls-41,.cls-42,.cls-43,.cls-44,.cls-6,.cls-7,.cls-8,.cls-9{stroke-miterlimit:10;}.cls-11,.cls-2,.cls-3,.cls-9{stroke-width:2px;}.cls-11,.cls-2,.cls-3,.cls-4,.cls-9{mix-blend-mode:multiply;}.cls-3{fill:#8785bd;opacity:0.16;}.cls-11,.cls-4,.cls-9{opacity:0.2;}.cls-5{fill:#bc91ca;}.cls-14,.cls-15,.cls-16,.cls-25,.cls-30,.cls-34,.cls-36,.cls-40,.cls-41,.cls-42,.cls-43,.cls-44,.cls-6,.cls-7,.cls-8{fill:none;}.cls-11,.cls-6,.cls-7{stroke:#805680;}.cls-34,.cls-36,.cls-6,.cls-7{stroke-width:8px;}.cls-16,.cls-7{stroke-dasharray:12 12;}.cls-10,.cls-40,.cls-41,.cls-42,.cls-43,.cls-44,.cls-8{stroke:#c1272d;stroke-width:4px;}.cls-8{stroke-dasharray:12 12 3 12;}.cls-10,.cls-39,.cls-8{opacity:0.35;}.cls-19,.cls-9{fill:#ff0;}.cls-36,.cls-9{stroke:gray;}.cls-10{fill:#ffc000;}.cls-11{fill:#a1b800;}.cls-12{opacity:0.28;}.cls-13,.cls-21{fill:#65160f;}.cls-14,.cls-15,.cls-16,.cls-34{stroke:#fff;}.cls-14,.cls-15,.cls-16{stroke-width:6px;}.cls-15{stroke-dasharray:12.08 12.08;}.cls-17,.cls-19,.cls-20,.cls-38{opacity:0.36;}.cls-18,.cls-28,.cls-45{fill:red;}.cls-19,.cls-20,.cls-21,.cls-25,.cls-38{stroke:#000;}.cls-20{fill:#900000;}.cls-21{opacity:0.7;}.cls-22,.cls-28,.cls-45{font-size:85.38px;}.cls-22,.cls-28,.cls-32,.cls-33,.cls-45{font-family:Myriad Pro;}.cls-23{letter-spacing:-7px;}.cls-24{letter-spacing:-1px;}.cls-25,.cls-30{stroke-width:5px;}.cls-26{letter-spacing:-2px;}.cls-27{white-space:pre;}.cls-28,.cls-29{opacity:0.38;}.cls-30{stroke:red;}.cls-31{letter-spacing:1px;}.cls-32,.cls-33{font-size:208.02px;}.cls-32,.cls-35{fill:#fff;}.cls-33,.cls-37{fill:gray;}.cls-38{fill:#903c00;}.cls-41{stroke-dasharray:2.98 11.91;}.cls-42{stroke-dasharray:11.91 11.91 2.98 11.91;}.cls-43{stroke-dasharray:2.97 11.87;}.cls-44{stroke-dasharray:11.87 11.87 2.97 11.87;}</style></defs><title>All the resolutions</title><g class="cls-1"><g id="Layer_1" data-name="Layer 1"><rect class="cls-2" x="4" y="1" width="8192" height="4320"/><rect class="cls-3" x="4.11" y="10" width="7680" height="4320"/><rect class="cls-3" x="4" y="2161" width="4096" height="2160"/><g class="cls-4"><rect class="cls-5" x="4" y="2161" width="3840" height="2160"/><polyline class="cls-6" points="3844 4315 3844 4321 3838 4321"/><line class="cls-7" x1="3826" y1="4321" x2="16" y2="4321"/><polyline class="cls-6" points="10 4321 4 4321 4 4315"/><line class="cls-7" x1="4" y1="4303" x2="4" y2="2173"/><polyline class="cls-6" points="4 2167 4 2161 10 2161"/><line class="cls-7" x1="22" y1="2161" x2="3832" y2="2161"/><polyline class="cls-6" points="3838 2161 3844 2161 3844 2167"/><line class="cls-7" x1="3844" y1="2179" x2="3844" y2="4309"/></g><rect class="cls-8" x="4" y="2881" width="2560" height="1440"/><rect class="cls-9" x="4" y="3241" width="2048" height="1080"/><rect class="cls-10" x="4" y="3745" width="1024" height="576"/><rect class="cls-11" x="4" y="3241" width="1920" height="1080"/><g class="cls-12"><rect class="cls-13" x="4" y="3601" width="1280" height="720"/><polyline class="cls-14" points="1284 4315 1284 4321 1278 4321"/><line class="cls-15" x1="1265.92" y1="4321" x2="16.04" y2="4321"/><polyline class="cls-14" points="10 4321 4 4321 4 4315"/><line class="cls-16" x1="4" y1="4303" x2="4" y2="3613"/><polyline class="cls-14" points="4 3607 4 3601 10 3601"/><line class="cls-15" x1="22.08" y1="3601" x2="1271.96" y2="3601"/><polyline class="cls-14" points="1278 3601 1284 3601 1284 3607"/><line class="cls-16" x1="1284" y1="3619" x2="1284" y2="4309"/></g><g class="cls-17"><rect class="cls-18" x="4" y="3745" width="768" height="576"/><polyline class="cls-14" points="772 4315 772 4321 766 4321"/><line class="cls-16" x1="754" y1="4321" x2="16" y2="4321"/><polyline class="cls-14" points="10 4321 4 4321 4 4315"/><line class="cls-16" x1="4" y1="4303" x2="4" y2="3757"/><polyline class="cls-14" points="4 3751 4 3745 10 3745"/><line class="cls-16" x1="22" y1="3745" x2="760" y2="3745"/><polyline class="cls-14" points="766 3745 772 3745 772 3751"/><line class="cls-16" x1="772" y1="3763" x2="772" y2="4309"/></g><rect class="cls-19" x="4" y="3745" width="720" height="576"/><rect class="cls-20" x="4" y="3787" width="720" height="534"/><rect class="cls-21" x="4" y="3841" width="720" height="480"/><text class="cls-22" transform="translate(1241.94 4164.29)">N<tspan x="56.18" y="0">T</tspan><tspan x="98.11" y="0">SC (displ</tspan><tspan x="402.75" y="0">a</tspan><tspan x="443.22" y="0">y </tspan><tspan x="501.54" y="0">r</tspan><tspan x="528.61" y="0">es) (720 x 534i anamo</tspan><tspan x="1296.19" y="0">r</tspan><tspan x="1324.46" y="0">phic)</tspan></text><text class="cls-22" transform="translate(1241.94 4057.59)">N<tspan x="56.18" y="0">T</tspan><tspan x="98.11" y="0">SC 16:9 (displ</tspan><tspan x="569.93" y="0">a</tspan><tspan x="610.4" y="0">y </tspan><tspan x="668.71" y="0">r</tspan><tspan x="695.78" y="0">es) (853 x 480i anamo</tspan><tspan x="1463.37" y="0">r</tspan><tspan x="1491.63" y="0">phic)</tspan></text><text class="cls-22" transform="translate(834.16 3441.64) rotate(-90)"><tspan class="cls-23">P</tspan><tspan x="38.25" y="0">AL (displ</tspan><tspan x="343.84" y="0">a</tspan><tspan x="384.31" y="0">y </tspan><tspan x="442.62" y="0">r</tspan><tspan x="469.69" y="0">es) (768 x 576i anamo</tspan><tspan x="1237.28" y="0">r</tspan><tspan x="1265.54" y="0">phic)</tspan></text><text class="cls-22" transform="translate(1241.94 4270.98)">N<tspan x="56.18" y="0">T</tspan><tspan x="98.11" y="0">SC (pi</tspan><tspan class="cls-24" x="300.63" y="0">x</tspan><tspan x="338.88" y="0">el </tspan><tspan x="419.91" y="0">r</tspan><tspan x="446.98" y="0">e</tspan><tspan x="489.76" y="0">s</tspan><tspan x="522.63" y="0">.) (720 x 480i)</tspan></text><text class="cls-22" transform="translate(1059.33 3441.64) rotate(-90)"><tspan class="cls-23">P</tspan><tspan x="38.25" y="0">AL 16:9 (displ</tspan><tspan x="511.01" y="0">a</tspan><tspan x="551.48" y="0">y </tspan><tspan x="609.8" y="0">r</tspan><tspan x="636.87" y="0">es) (1024 x 576i anamo</tspan><tspan x="1448.26" y="0">r</tspan><tspan x="1476.52" y="0">phic)</tspan></text><text class="cls-22" transform="translate(724 3441.64) rotate(-90)"><tspan class="cls-23">P</tspan><tspan x="38.25" y="0">AL (pi</tspan><tspan class="cls-24" x="241.72" y="0">x</tspan><tspan x="279.97" y="0">el </tspan><tspan x="361" y="0">r</tspan><tspan x="388.06" y="0">es) (720 x 576i)</tspan></text><line x1="1241.94" y1="4241.01" x2="724" y2="3841"/><line class="cls-25" x1="1241.94" y1="4241.01" x2="735.18" y2="3849.64"/><polygon points="768.29 3855.11 766.77 3859.88 735.57 3849.93 753.08 3877.61 748.86 3880.28 724 3841 768.29 3855.11"/><line x1="1241.94" y1="4132.44" x2="724" y2="3785"/><line class="cls-25" x1="1241.94" y1="4132.44" x2="735.73" y2="3792.87"/><polygon points="769.14 3796.13 767.94 3800.99 736.14 3793.14 755.46 3819.59 751.42 3822.54 724 3785 769.14 3796.13"/><line x1="1241.94" y1="4027.72" x2="857" y2="3834"/><line class="cls-25" x1="1241.94" y1="4027.72" x2="869.62" y2="3840.35"/><polygon points="903.17 3839.43 902.58 3844.4 870.06 3840.57 892.51 3864.41 888.88 3867.84 857 3834 903.17 3839.43"/><line x1="724" y1="3745" x2="702.11" y2="3466.56"/><line class="cls-25" x1="722.89" y1="3730.92" x2="702.11" y2="3466.56"/><polygon points="736.43 3700.2 731.61 3698.87 722.85 3730.43 709.28 3700.62 704.73 3702.7 724 3745 736.43 3700.2"/><line x1="772" y1="3745" x2="793.22" y2="3466.56"/><line class="cls-25" x1="773.07" y1="3730.91" x2="793.22" y2="3466.56"/><polygon points="791.18 3702.65 786.62 3700.59 773.11 3730.43 764.28 3698.89 759.47 3700.23 772 3745 791.18 3702.65"/><line x1="1028" y1="3745" x2="1028.46" y2="3457"/><line class="cls-25" x1="1028.02" y1="3730.87" x2="1028.46" y2="3457"/><polygon points="1043.97 3701.34 1039.27 3699.63 1028.02 3730.38 1016.87 3699.59 1012.17 3701.29 1028 3745 1043.97 3701.34"/><text class="cls-22" transform="translate(2108.94 3126)"><tspan class="cls-26">F</tspan><tspan x="38.59" y="0">ull H</tspan><tspan class="cls-26" x="199.71" y="0">D</tspan><tspan x="253.67" y="0">, FH</tspan><tspan class="cls-26" x="386.7" y="0">D</tspan><tspan x="440.66" y="0">, 1080</tspan><tspan class="cls-26" x="651.64" y="0">p</tspan><tspan x="698.17" y="0">,</tspan><tspan class="cls-23" x="715.85" y="0"> </tspan><tspan x="726.86" y="0">“2</tspan><tspan x="800.89" y="0">K</tspan><tspan class="cls-23" x="847.93" y="0">”</tspan><tspan class="cls-27" x="870.81" y="0"> (1920 x1080i/</tspan><tspan x="1370.47" y="0">p</tspan><tspan x="1418.79" y="0">)</tspan></text><line x1="1918" y1="3241" x2="2108.94" y2="3092"/><line class="cls-25" x1="1929.14" y1="3232.31" x2="2108.94" y2="3092"/><polygon points="1962.22 3226.66 1960.68 3221.91 1929.52 3232.01 1946.9 3204.24 1942.66 3201.59 1918 3241 1962.22 3226.66"/><text class="cls-28" transform="translate(1933.94 2414)">3K - came<tspan x="345.89" y="0">r</tspan><tspan x="373.38" y="0">a only (3072x1728)</tspan></text><g class="cls-29"><line class="cls-30" x1="3069.86" y1="2580.27" x2="2989.66" y2="2414"/><polygon class="cls-18" points="3071.34 2546.74 3066.37 2547.25 3069.65 2579.83 3046.19 2556.98 3042.7 2560.56 3076 2593 3071.34 2546.74"/></g><text class="cls-22" transform="translate(4277.94 2599)">UH<tspan class="cls-26" x="110.91" y="0">D</tspan><tspan x="164.87" y="0">, QFH</tspan><tspan class="cls-26" x="356.73" y="0">D</tspan><tspan x="410.69" y="0">, UHD 4</tspan><tspan class="cls-31" x="676.14" y="0">K</tspan><tspan x="723.87" y="0">,</tspan><tspan class="cls-23" x="741.55" y="0"> </tspan><tspan x="752.56" y="0">“4</tspan><tspan x="826.59" y="0">K</tspan><tspan class="cls-23" x="873.63" y="0">”</tspan><tspan class="cls-27" x="896.51" y="0"> (3840 x 2160</tspan><tspan x="1365" y="0">p</tspan><tspan x="1413.33" y="0">)</tspan></text><line x1="3844" y1="2161" x2="4277.94" y2="2565"/><line class="cls-25" x1="3854.34" y1="2170.63" x2="4277.94" y2="2565"/><polygon points="3865.14 2202.41 3869.59 2200.13 3854.7 2170.96 3884.86 2183.73 3886.81 2179.13 3844 2161 3865.14 2202.41"/><text class="cls-22" transform="translate(6037.94 379)">UHD 8<tspan class="cls-31" x="229.68" y="0">K</tspan><tspan x="277.41" y="0">, FUH</tspan><tspan class="cls-26" x="465.68" y="0">D</tspan><tspan x="519.64" y="0">,</tspan><tspan class="cls-23" x="537.31" y="0"> </tspan><tspan x="548.33" y="0">“8</tspan><tspan x="622.35" y="0">K</tspan><tspan class="cls-23" x="669.4" y="0">”</tspan><tspan class="cls-27" x="692.28" y="0"> (7680 x 4320</tspan><tspan x="1160.77" y="0">p</tspan><tspan x="1209.1" y="0">)</tspan></text><line x1="7684" y1="1" x2="7283.09" y2="349"/><line class="cls-25" x1="7673.33" y1="10.26" x2="7283.09" y2="349"/><polygon points="7640.59 17.63 7642.38 22.3 7672.96 10.58 7657.06 39.22 7661.43 41.64 7684 1 7640.59 17.63"/><text class="cls-22" transform="translate(6710.98 607)">8<tspan class="cls-31" x="43.8" y="0">K</tspan><tspan x="91.53" y="0">, DCI 8K (8192 x 4320</tspan><tspan x="830.77" y="0">p</tspan><tspan x="879.09" y="0">)</tspan></text><line x1="8196" y1="1" x2="7632.09" y2="589"/><line class="cls-25" x1="8186.22" y1="11.2" x2="7632.09" y2="589"/><polygon points="8154.28 21.52 8156.5 26.01 8185.88 11.55 8172.66 41.52 8177.24 43.53 8196 1 8154.28 21.52"/><text class="cls-22" transform="translate(4468.94 2380)">4<tspan class="cls-31" x="43.8" y="0">K</tspan><tspan x="91.53" y="0">, DCI 4K (4096 x 2160</tspan><tspan x="830.77" y="0">p</tspan><tspan x="879.09" y="0">)</tspan></text><line x1="4100" y1="2161" x2="4468.94" y2="2346"/><line class="cls-25" x1="4112.63" y1="2167.33" x2="4468.94" y2="2346"/><polygon points="4131.92 2194.8 4135.56 2191.36 4113.07 2167.55 4145.6 2171.33 4146.18 2166.37 4100 2161 4131.92 2194.8"/><text class="cls-22" transform="translate(2242.94 3276)">2<tspan class="cls-31" x="43.8" y="0">K</tspan><tspan x="91.53" y="0">, DCI 2K (2048 x1080</tspan><tspan x="812.67" y="0">p</tspan><tspan x="860.99" y="0">)</tspan></text><line x1="2052" y1="3241" x2="2242.94" y2="3239"/><line class="cls-25" x1="2066.13" y1="3240.85" x2="2242.94" y2="3239"/><polygon points="2095.85 3256.45 2097.51 3251.72 2066.62 3240.85 2097.27 3229.32 2095.51 3224.64 2052 3241 2095.85 3256.45"/><text class="cls-32" transform="translate(305.78 4286.56)">SD</text><text class="cls-33" transform="translate(1312.94 3554.33)">HD</text><line class="cls-34" x1="405" y1="4100" x2="405" y2="3745"/><polygon class="cls-35" points="430.44 4052.22 422.92 4049.48 405 4098.72 387.08 4049.48 379.56 4052.22 405 4122.11 430.44 4052.22"/><line class="cls-34" x1="585" y1="4229" x2="772" y2="4229"/><polygon class="cls-35" points="632.01 4254.44 634.74 4246.92 585.5 4229 634.74 4211.08 632.01 4203.56 562.11 4229 632.01 4254.44"/><line class="cls-36" x1="1242" y1="3601" x2="1242" y2="2974"/><polygon class="cls-37" points="1267.56 3020.89 1260.03 3023.63 1242.11 2974.39 1224.19 3023.63 1216.67 3020.89 1242.11 2951 1267.56 3020.89"/><line class="cls-36" x1="1284" y1="3642" x2="2180" y2="3642"/><polygon class="cls-37" points="2132.22 3667.56 2129.48 3660.03 2178.72 3642.11 2129.48 3624.19 2132.22 3616.67 2202.11 3642.11 2132.22 3667.56"/><text class="cls-33" transform="translate(3872.94 2113.33)">UHD</text><line class="cls-36" x1="3802" y1="2160" x2="3802" y2="1533"/><polygon class="cls-37" points="3827.56 1579.89 3820.03 1582.63 3802.11 1533.39 3784.19 1582.63 3776.67 1579.89 3802.11 1510 3827.56 1579.89"/><line class="cls-36" x1="3844" y1="2201" x2="4740" y2="2201"/><polygon class="cls-37" points="4692.22 2226.56 4689.48 2219.03 4738.72 2201.11 4689.48 2183.19 4692.22 2175.67 4762.11 2201.11 4692.22 2226.56"/><rect class="cls-8" x="4" y="2593" width="3072" height="1728"/><text class="cls-28" transform="translate(6269.94 1274)">6K - came<tspan x="345.89" y="0">r</tspan><tspan x="373.38" y="0">a only (6000 x 3000)</tspan></text><g class="cls-29"><line class="cls-30" x1="6017.52" y1="1316.88" x2="6269.94" y2="1240"/><polygon class="cls-18" points="6050.42 1323.48 6050.69 1318.49 6017.98 1316.74 6044.16 1297.06 6041.16 1293.06 6004 1321 6050.42 1323.48"/></g><text class="cls-28" transform="translate(5389.94 1574)">5K - came<tspan x="345.89" y="0">r</tspan><tspan x="373.38" y="0">a only (5120 x 2700)</tspan></text><g class="cls-29"><line class="cls-30" x1="5137.52" y1="1616.88" x2="5389.94" y2="1540"/><polygon class="cls-18" points="5170.42 1623.48 5170.69 1618.49 5137.98 1616.74 5164.16 1597.06 5161.16 1593.06 5124 1621 5170.42 1623.48"/></g><text class="cls-28" transform="translate(1479.94 2737)">HDV (pi<tspan class="cls-24" x="271.09" y="0">x</tspan><tspan x="309.34" y="0">el </tspan><tspan x="390.37" y="0">r</tspan><tspan x="417.44" y="0">es) - came</tspan><tspan x="774.08" y="0">r</tspan><tspan x="801.58" y="0">a only (1440 x 1080 anamo</tspan><tspan x="1749.83" y="0">r</tspan><tspan x="1778.09" y="0">phic)</tspan></text><g class="cls-29"><line class="cls-30" x1="1445.99" y1="3227.01" x2="1513.51" y2="2751.48"/><polygon class="cls-18" points="1465.89 3199.99 1461.47 3197.63 1446.06 3226.53 1439.29 3194.48 1434.4 3195.51 1444 3241 1465.89 3199.99"/></g><rect class="cls-8" x="4" y="1621" width="5120" height="2700"/><rect class="cls-8" x="4" y="1321" width="6000" height="3000"/><rect class="cls-8" x="4" y="3241" width="1440" height="1080"/><rect class="cls-38" x="4" y="3841" width="853" height="480"/><g class="cls-29"><line class="cls-30" x1="2593.55" y1="2874.87" x2="2857.94" y2="2820"/><path class="cls-18" d="M2560,2880c15,2.27,34,7.5,46.68,14.6l-13.25-21.54,3.59-25C2588.26,2859.58,2572.83,2872,2560,2880Z" transform="translate(4 1)"/></g><g class="cls-39"><polyline class="cls-40" points="2404 4315 2404 4321 2398 4321"/><line class="cls-41" x1="2386.09" y1="4321" x2="2377.16" y2="4321"/><line class="cls-42" x1="2371.2" y1="4321" x2="15.96" y2="4321"/><polyline class="cls-40" points="10 4321 4 4321 4 4315"/><line class="cls-43" x1="4" y1="4303.13" x2="4" y2="4294.23"/><line class="cls-44" x1="4" y1="4288.3" x2="4" y2="2982.93"/><polyline class="cls-40" points="4 2977 4 2971 10 2971"/><line class="cls-41" x1="21.91" y1="2971" x2="30.84" y2="2971"/><line class="cls-42" x1="36.8" y1="2971" x2="2392.04" y2="2971"/><polyline class="cls-40" points="2398 2971 2404 2971 2404 2977"/><line class="cls-43" x1="2404" y1="2988.87" x2="2404" y2="2997.77"/><line class="cls-44" x1="2404" y1="3003.7" x2="2404" y2="4309.07"/></g><text class="cls-28" transform="translate(2640.1 2951)">“2.5<tspan x="135.5" y="0">K</tspan><tspan class="cls-23" x="182.54" y="0">”</tspan><tspan class="cls-27" x="205.43" y="0"> - came</tspan><tspan x="461.23" y="0">r</tspan><tspan x="488.73" y="0">a only (BM</tspan><tspan class="cls-24" x="859.89" y="0">C</tspan><tspan class="cls-31" x="907.62" y="0">C</tspan><tspan x="958.59" y="0">)(2400 x 1350)</tspan></text><g class="cls-29"><line class="cls-30" x1="2418.09" y1="2969.92" x2="2665.42" y2="2951"/><polygon class="cls-18" points="2448.77 2983.53 2450.11 2978.71 2418.57 2969.89 2448.41 2956.37 2446.34 2951.82 2404 2971 2448.77 2983.53"/></g><g class="cls-29"><text class="cls-45" transform="translate(2857.94 2854)">“2.5<tspan x="135.5" y="0">K</tspan><tspan class="cls-23" x="182.54" y="0">”</tspan><tspan class="cls-27" x="205.43" y="0"> (2560 x 1440)</tspan></text></g><text class="cls-22" transform="translate(1474.94 3800)">HD720, 720p (1280 x 720i/<tspan x="933.65" y="0">p</tspan><tspan x="981.98" y="0">)</tspan></text><line x1="1284" y1="3601" x2="1474.94" y2="3766"/><line class="cls-25" x1="1294.69" y1="3610.24" x2="1474.94" y2="3766"/><polygon points="1306.65 3641.59 1311.02 3639.16 1295.06 3610.56 1325.67 3622.2 1327.45 3617.53 1284 3601 1306.65 3641.59"/></g></g></svg>